<svg xmlns="http://www.w3.org/2000/svg" clip-rule="evenodd" fill-rule="evenodd" image-rendering="optimizeQuality" text-rendering="geometricPrecision" shape-rendering="geometricPrecision" viewBox="0 0 512 512" style="enable-background:new 0 0 512 512;">

 <g>
  <title>Layer 1</title>
  <path id="svg_1" fill-rule="nonzero" fill="#999"/>
  <path id="svg_2" d="m255.99,19.48c65.31,0 124.46,26.48 167.25,69.27c42.79,42.79 69.28,101.93 69.28,167.24s-26.49,124.46 -69.28,167.25c-42.79,42.79 -101.94,69.28 -167.25,69.28c-65.23,0 -124.38,-26.51 -167.18,-69.33c-42.84,-42.74 -69.33,-101.89 -69.33,-167.2c0,-65.31 26.48,-124.45 69.27,-167.24c42.79,-42.79 101.93,-69.27 167.24,-69.27z" fill-rule="nonzero" fill="#fff"/>
  <path id="svg_3" d="m255.99,39.59c84.4,0 157.5,48.29 193.17,118.74l-386.32,0c35.68,-70.45 108.78,-118.74 193.15,-118.74z" fill-rule="nonzero" fill="#F93"/>
  <path id="svg_4" d="m60.38,348.64l391.24,0c-34.71,73.18 -109.24,123.77 -195.63,123.77c-86.37,0 -160.89,-50.59 -195.61,-123.77z" fill-rule="nonzero" fill="#128807"/>
  <path id="svg_5" d="m255.99,179.9c42.05,0 76.13,34.08 76.13,76.11c0,42.04 -34.08,76.12 -76.13,76.12c-42.03,0 -76.11,-34.08 -76.11,-76.12c0,-42.03 34.08,-76.11 76.11,-76.11zm13.31,75.43c-0.04,-0.71 -0.13,-1.41 -0.27,-2.09l13.3,-1.92l38.01,-12.54l-39.2,8.14l-12.46,4.99c-0.22,-0.68 -0.49,-1.33 -0.81,-1.95l12.34,-5.29l33.46,-21.96c-0.9,-1.56 -1.85,-3.08 -2.87,-4.55l0.07,-0.05c-1.46,1.13 -3.55,0.84 -4.68,-0.61a3.345,3.345 0 0 1 0.56,-4.61a62.382,62.382 0 0 0 -3.66,-3.96l0,-0.02l-29.87,26.65l-8.29,10.57c-0.53,-0.48 -1.1,-0.91 -1.68,-1.3l8.04,-10.75l18.01,-35.75l-21.95,33.47l-5.29,12.35c-0.62,-0.32 -1.28,-0.59 -1.97,-0.81l5.01,-12.46l8.14,-39.2l-12.56,38.01l-1.9,13.3c-0.68,-0.14 -1.38,-0.23 -2.09,-0.28l1.6,-13.34l-2.3,-39.95c-1.8,0 -3.59,0.09 -5.37,0.22l-0.01,-0.1c0.24,1.83 -1.05,3.5 -2.87,3.74a3.325,3.325 0 0 1 -3.72,-2.79c-3.58,0.65 -7.05,1.59 -10.4,2.79c0.65,1.68 -0.16,3.6 -1.84,4.28c-1.66,0.68 -3.58,-0.08 -4.31,-1.73c-1.63,0.78 -3.23,1.63 -4.78,2.52l21.96,33.45l5.29,12.35c0.62,-0.32 1.27,-0.59 1.95,-0.81l-4.99,-12.46l-8.14,-39.2l12.55,38.01l1.91,13.3c0.68,-0.14 1.38,-0.23 2.09,-0.28l-1.6,-13.34l2.28,-39.95c1.81,0 3.61,0.08 5.39,0.22l0.01,-0.1a3.342,3.342 0 0 0 2.87,3.74c1.79,0.24 3.45,-1.01 3.72,-2.79c3.58,0.65 7.05,1.59 10.41,2.79c-0.65,1.68 0.16,3.6 1.82,4.28c1.68,0.68 3.59,-0.08 4.32,-1.73c3.28,1.55 6.38,3.34 9.33,5.39l0.05,-0.07c-1.13,1.46 -0.84,3.55 0.61,4.67a3.36,3.36 0 0 0 4.68,-0.61l-0.07,0.08a64.22,64.22 0 0 1 3.94,3.62l0.02,0l-26.64,29.89l-10.56,8.29c0.48,0.53 0.9,1.08 1.28,1.68l10.76,-8.06l35.74,-18c0.89,1.56 1.74,3.15 2.52,4.78a3.298,3.298 0 0 0 -1.73,4.31c0.68,1.67 2.58,2.48 4.28,1.83c1.19,3.34 2.13,6.83 2.78,10.41a3.325,3.325 0 0 0 -2.78,3.72c0.23,1.82 1.91,3.1 3.73,2.86l-0.09,0.02c0.13,1.77 0.22,3.56 0.22,5.37l-39.95,-2.28l-13.35,1.6zm-46.61,-56.98l18.01,35.73l8.06,10.75c-0.6,0.39 -1.16,0.82 -1.68,1.3l-8.3,-10.57l-29.87,-26.63c1.27,-1.27 2.6,-2.49 3.96,-3.66c1.13,1.39 3.18,1.65 4.61,0.55a3.33,3.33 0 0 0 0.62,-4.67l0.05,0.07c1.48,-1.02 2.99,-1.97 4.54,-2.87zm-13.78,10.58l26.64,29.87l10.56,8.29c-0.47,0.53 -0.9,1.08 -1.3,1.68l-10.75,-8.06l-35.74,-18c-0.89,1.55 -1.73,3.15 -2.5,4.76a3.35,3.35 0 0 1 1.72,4.33c-0.68,1.67 -2.6,2.48 -4.27,1.83c-0.61,1.7 -1.13,3.41 -1.6,5.15l38,12.54l13.31,1.92c-0.15,0.68 -0.24,1.38 -0.29,2.09l-13.33,-1.6l-39.96,2.28c0,1.81 0.1,3.61 0.22,5.38l-0.09,0.02c1.82,-0.25 3.5,1.03 3.74,2.87c0.23,1.79 -1.02,3.45 -2.79,3.72c0.65,3.58 1.58,7.03 2.79,10.39c1.67,-0.64 3.59,0.17 4.27,1.83c0.68,1.67 -0.08,3.6 -1.72,4.33c0.77,1.63 1.61,3.21 2.5,4.76l35.74,-18l10.75,-8.05c0.4,0.59 0.83,1.16 1.3,1.68l-10.56,8.3l-26.65,29.87l0.01,0c1.27,1.26 2.6,2.48 3.96,3.66c1.13,-1.4 3.18,-1.67 4.61,-0.56c1.46,1.12 1.74,3.22 0.62,4.67l0.05,-0.06c1.47,1.03 2.99,1.98 4.54,2.88l21.96,-33.48l5.29,-12.35c0.62,0.33 1.27,0.6 1.95,0.82l-4.99,12.47l-8.14,39.19c1.73,0.46 3.49,0.86 5.26,1.19a3.325,3.325 0 0 1 3.72,-2.8c1.79,0.25 3.06,1.87 2.87,3.65c1.77,0.15 3.56,0.23 5.38,0.23l2.3,-39.97l-1.6,-13.34c0.71,-0.03 1.41,-0.13 2.09,-0.27l1.9,13.3l12.56,38.01l-8.14,-39.19l-5.01,-12.47c0.69,-0.22 1.35,-0.5 1.97,-0.82l5.29,12.35l21.95,33.48c1.55,-0.9 3.09,-1.87 4.56,-2.88l0.05,0.06c-1.13,-1.45 -0.84,-3.55 0.61,-4.67c1.43,-1.11 3.49,-0.84 4.6,0.56c1.37,-1.16 2.7,-2.4 3.97,-3.66l-26.64,-29.87l-10.56,-8.3c0.48,-0.52 0.9,-1.09 1.28,-1.68l10.76,8.05l35.76,18l-33.48,-21.96l-12.36,-5.28c0.34,-0.63 0.61,-1.28 0.83,-1.96l12.46,5.01l39.18,8.13c0.46,-1.72 0.87,-3.46 1.2,-5.25a3.325,3.325 0 0 1 -2.78,-3.72a3.318,3.318 0 0 1 3.73,-2.87l-0.09,-0.02c0.14,-1.77 0.22,-3.56 0.22,-5.38l-39.95,2.28l-13.35,-1.6c-0.04,0.73 -0.13,1.43 -0.27,2.11l13.3,1.9l37.99,12.55c-0.47,1.75 -0.98,3.46 -1.58,5.14c-1.7,-0.64 -3.6,0.17 -4.28,1.83c-0.7,1.7 0.08,3.61 1.73,4.33a64.329,64.329 0 0 1 -5.39,9.32l0.07,0.05a3.335,3.335 0 0 0 -4.68,0.62c-1.1,1.42 -0.83,3.48 0.56,4.59a72.466,72.466 0 0 1 -3.66,3.98l-29.87,-26.64l-8.29,-10.56c-0.53,0.46 -1.1,0.9 -1.68,1.28l8.04,10.75l18.01,35.76c-1.55,0.89 -3.14,1.73 -4.77,2.5c-0.71,-1.64 -2.63,-2.42 -4.32,-1.72c-1.7,0.69 -2.5,2.64 -1.79,4.34l-0.03,-0.07a64.87,64.87 0 0 1 -10.41,2.79a3.325,3.325 0 0 0 -3.72,-2.8c-1.79,0.25 -3.06,1.87 -2.87,3.65c-1.77,0.13 -3.59,0.23 -5.4,0.23l-2.28,-39.97l1.6,-13.34c-0.71,-0.03 -1.41,-0.13 -2.09,-0.27l-1.91,13.3l-12.55,38.01c-1.75,-0.46 -3.48,-1 -5.14,-1.6a3.3,3.3 0 0 0 -1.84,-4.27c-1.68,-0.7 -3.6,0.08 -4.32,1.72a65.32,65.32 0 0 1 -4.77,-2.5l18.01,-35.76l8.06,-10.75c-0.6,-0.38 -1.16,-0.82 -1.68,-1.28l-8.3,10.56l-29.88,26.64l0,-0.02c-1.27,-1.27 -2.49,-2.6 -3.65,-3.96c1.4,-1.11 1.65,-3.17 0.56,-4.59a3.324,3.324 0 0 0 -4.67,-0.62l0.06,-0.05c-1.01,-1.47 -1.98,-3 -2.88,-4.56l33.46,-21.96l12.35,-5.28c-0.31,-0.63 -0.58,-1.28 -0.81,-1.96l-12.46,5.01l-39.19,8.13l38,-12.55l13.31,-1.9c-0.15,-0.68 -0.24,-1.38 -0.29,-2.11l-13.33,1.6l-39.96,-2.28c0,-1.82 0.08,-3.6 0.22,-5.37l-0.09,-0.02c1.82,0.24 3.5,-1.04 3.74,-2.86c0.23,-1.79 -1.02,-3.45 -2.79,-3.72c0.33,-1.78 0.73,-3.53 1.19,-5.26l39.19,8.14l12.46,4.99c0.23,-0.68 0.5,-1.33 0.81,-1.95l-12.35,-5.29l-33.46,-21.96c0.9,-1.56 1.85,-3.08 2.88,-4.55l-0.06,-0.05c1.45,1.13 3.54,0.84 4.67,-0.61c1.09,-1.43 0.84,-3.49 -0.56,-4.61c1.18,-1.36 2.4,-2.69 3.66,-3.96z" fill="#008"/>
 </g>
</svg>