<svg width="56" height="68" viewBox="0 0 56 68" fill="none" xmlns="http://www.w3.org/2000/svg">
<path d="M55.021 27.5321C55.0226 29.8669 54.7228 32.1921 54.129 34.4501C53.5488 36.6649 52.6991 38.8002 51.599 40.8081C50.9836 41.9234 50.2884 42.9929 49.519 44.0081C49.489 44.0601 49.467 44.0891 49.46 44.1081L49.453 44.1151C48.8537 44.9053 48.2135 45.6637 47.535 46.3871C46.5727 47.4104 45.5322 48.3572 44.423 49.2191C44.423 49.2191 36.442 54.9501 26.869 54.9501L25.298 54.9571L18.579 55.0011V36.4791H27.533C28.7121 36.4887 29.8803 36.2523 30.963 35.7851C32.0304 35.3317 33.0015 34.6787 33.824 33.8611C34.6443 33.0359 35.2958 32.0587 35.742 30.9841C36.2116 29.8945 36.4477 28.7185 36.435 27.5321C36.439 26.9305 36.382 26.3301 36.265 25.7401C36.2611 25.7333 36.2588 25.7258 36.258 25.7181C36.1466 25.1503 35.9736 24.5963 35.742 24.0661C34.8352 21.9032 33.1166 20.182 30.955 19.2721C29.8753 18.8044 28.7096 18.5683 27.533 18.5791H18.579C18.5777 13.6522 16.62 8.92748 13.1362 5.44356C9.65247 1.95964 4.92786 0.00167306 0.000976562 8.25541e-05H27.533C30.003 -0.0060215 32.4622 0.326403 34.842 0.988082C37.136 1.62808 39.3374 2.56287 41.391 3.76908C42.129 4.20408 42.844 4.67608 43.538 5.17808L43.596 5.21408C46.7041 7.46981 49.3109 10.3453 51.252 13.6591C52.4568 15.7162 53.3915 17.92 54.033 20.2161C54.6942 22.5983 55.0266 25.0598 55.021 27.5321Z" fill="url(#paint0_linear_105_2)"/>
<path d="M52.0411 67.1821H32.1572L29.0231 59.9321L26.8661 54.9471C36.4391 54.9471 44.4202 49.2161 44.4202 49.2161L46.7062 54.6161L47.1062 55.5531C47.1062 55.5601 47.1142 55.5601 47.1142 55.5671L52.0411 67.1821Z" fill="url(#paint1_linear_105_2)"/>
<path d="M18.579 18.579V67.179H0.000976562V0C4.92786 0.00159051 9.65247 1.95956 13.1362 5.44348C16.62 8.9274 18.5777 13.6521 18.579 18.579Z" fill="url(#paint2_linear_105_2)"/>
<g style="mix-blend-mode:multiply" opacity="0.16">
<path d="M18.579 18.579C18.5777 13.6521 16.62 8.9274 13.1362 5.44348C9.65247 1.95956 4.92786 0.00159051 0.000976562 0H16.824C20.578 3.511 24.185 9.264 25.077 18.579H18.579Z" fill="black"/>
</g>
<g style="mix-blend-mode:multiply" opacity="0.16">
<path d="M25.2981 36.479V54.954L18.5791 54.998V36.479H25.2981Z" fill="black"/>
</g>
<g style="mix-blend-mode:multiply" opacity="0.16">
<path d="M46.7091 54.6151C41.2067 57.4988 35.2036 59.3035 29.0231 59.9321L26.8661 54.9471C36.4391 54.9471 44.4202 49.2161 44.4202 49.2161L46.7091 54.6151Z" fill="black"/>
</g>
<g style="mix-blend-mode:multiply" opacity="0.25">
<path d="M55.0211 27.532C55.0227 29.8668 54.7229 32.192 54.1291 34.45C53.5489 36.6648 52.6992 38.8001 51.5991 40.808C50.9837 41.9233 50.2886 42.9928 49.5191 44.008C49.6521 43.794 49.9761 43.278 50.4111 42.489C51.206 41.0513 51.889 39.5545 52.4541 38.012C53.2438 35.853 53.786 33.6113 54.0701 31.33C54.2178 30.0521 54.2866 28.7663 54.2761 27.48C54.2631 26.1513 54.1548 24.8252 53.9521 23.512C53.7598 22.1986 53.4686 20.9016 53.0811 19.632C52.7067 18.4009 52.2562 17.1942 51.7321 16.019C51.2324 14.9185 50.6708 13.8471 50.0501 12.81C49.4501 11.829 48.8261 10.922 48.2131 10.118C47.2163 8.8127 46.1189 7.5873 44.9311 6.453C44.0691 5.619 43.5381 5.177 43.5381 5.177L43.5961 5.213C46.7043 7.46873 49.3111 10.3442 51.2521 13.658C52.457 15.7151 53.3917 17.9189 54.0331 20.215C54.6944 22.5976 55.0268 25.0594 55.0211 27.532Z" fill="black"/>
</g>
<g style="mix-blend-mode:multiply" opacity="0.25">
<path d="M52.041 67.1821H37.209C38.448 66.9981 39.68 66.8871 40.919 66.7821C42.158 66.6771 43.39 66.6051 44.619 66.5461C45.848 66.4871 47.097 66.4581 48.329 66.4351L50.895 66.4131C50.644 65.7941 50.395 65.1741 50.158 64.5471C49.767 63.5671 49.398 62.5861 49.044 61.5901C48.69 60.5941 48.344 59.5991 48.011 58.5901C47.678 57.5811 47.377 56.5771 47.111 55.5591L52.041 67.1821Z" fill="black"/>
</g>
<g style="mix-blend-mode:screen" opacity="0.7">
<path d="M0.774964 33.595C0.767964 35.695 0.759972 37.795 0.745972 39.857C0.731972 41.919 0.700956 43.957 0.678956 45.927C0.627956 49.865 0.545963 53.538 0.442963 56.687C0.258963 62.987 0.000976562 67.182 0.000976562 67.182V0C0.000976562 0 0.258963 4.2 0.442963 10.495C0.542963 13.645 0.627956 17.317 0.678956 21.256C0.700956 23.225 0.745972 25.261 0.745972 27.326C0.745972 29.391 0.765964 31.493 0.774964 33.595Z" fill="white"/>
</g>
<g style="mix-blend-mode:multiply" opacity="0.25">
<path d="M36.7741 28.978C36.7462 29.5294 36.6573 30.0761 36.5091 30.608C36.4281 30.888 36.3241 31.198 36.2281 31.463C36.1164 31.7612 35.9861 32.0521 35.8381 32.334C35.5322 32.9324 35.1559 33.492 34.7171 34.001C34.263 34.5241 33.7533 34.9962 33.1971 35.409C32.6284 35.8069 32.0206 36.1457 31.3831 36.42C30.7661 36.6814 30.1197 36.867 29.4581 36.973C28.8437 37.0724 28.2198 37.0996 27.5991 37.054C27.0391 37.025 26.5231 36.973 26.0361 36.921C24.1111 36.737 22.8271 36.479 22.8271 36.479H27.5331C28.7122 36.4886 29.8804 36.2523 30.9631 35.785C32.0305 35.3316 33.0016 34.6786 33.8241 33.861C34.6444 33.0358 35.2959 32.0586 35.7421 30.984C36.2117 29.8944 36.4478 28.7184 36.4351 27.532C36.4391 26.9304 36.3821 26.3301 36.2651 25.74C36.3831 26.0092 36.4771 26.2883 36.5461 26.574C36.74 27.3597 36.8169 28.1698 36.7741 28.978Z" fill="black"/>
</g>
<g style="mix-blend-mode:screen" opacity="0.7">
<path d="M18.579 18.579V67.179C18.579 67.179 18.513 65.963 18.439 63.838C18.365 61.713 18.239 58.668 18.159 55.025C18.059 51.381 17.982 47.125 17.93 42.568C17.908 40.289 17.886 37.936 17.864 35.539C17.842 33.142 17.849 30.716 17.842 28.289C17.835 25.862 17.856 23.421 17.871 21.032C17.864 19.844 17.901 18.632 17.864 17.514C17.8119 16.4015 17.6539 15.2965 17.392 14.214C16.8963 12.1491 16.0478 10.1853 14.884 8.40898C12.9216 5.43331 10.1508 3.07948 6.89701 1.62398C5.7417 1.1055 4.53506 0.709991 3.297 0.443977C2.49567 0.27147 1.68544 0.143274 0.869996 0.0599766C0.301996 0.0229766 0 0.000976562 0 0.000976562C4.92688 0.00256707 9.65149 1.96053 13.1352 5.44446C16.619 8.92838 18.5767 13.6531 18.578 18.58L18.579 18.579Z" fill="white"/>
</g>
<defs>
<linearGradient id="paint0_linear_105_2" x1="54.1958" y1="27.5005" x2="7.42869" y2="27.5005" gradientUnits="userSpaceOnUse">
<stop stop-color="#318162"/>
<stop offset="1" stop-color="#1D7162"/>
</linearGradient>
<linearGradient id="paint1_linear_105_2" x1="36.7599" y1="53.3662" x2="39.2685" y2="67.4262" gradientUnits="userSpaceOnUse">
<stop stop-color="#193D2F"/>
<stop offset="1" stop-color="#205548"/>
</linearGradient>
<linearGradient id="paint2_linear_105_2" x1="9.28998" y1="2.14973" x2="9.28998" y2="67.3134" gradientUnits="userSpaceOnUse">
<stop stop-color="#193D38"/>
<stop offset="1" stop-color="#318162"/>
</linearGradient>
</defs>
</svg>
